<svg width="62" height="62" viewBox="0 0 62 62" fill="none" xmlns="http://www.w3.org/2000/svg">
<circle cx="30.83" cy="31.0781" r="29.8369" stroke="#72A6C4" stroke-width="2"/>
<path d="M33.54 0.846924V12.8338" stroke="#72A6C4" stroke-width="2"/>
<path d="M33.5381 11.9163C30.1198 11.9163 28.4014 14.9513 28.4014 17.7882H38.6748C38.6748 14.9513 36.8835 11.9163 33.5381 11.9163Z" fill="#72A6C4"/>
<path d="M2.24121 25.7108C4.03289 25.626 5.66297 25.8503 7.66099 27.2049C12.8815 25.9067 24.6177 24.0893 29.7986 27.2049C30.9955 26.5049 33.5326 25.2929 34.1058 26.0452C34.6789 26.7975 34.0162 28.3886 33.6132 29.0901C35.366 32.5983 37.8199 41.7328 33.6132 50.2057C33.9878 51.02 34.6047 52.9 34.0753 53.9057C33.546 54.9115 31.6785 54.413 30.8109 54.0381C30.0316 54.3616 27.9876 55.0527 26.0467 55.2291" stroke="#72A6C4" stroke-width="2" stroke-linecap="round" stroke-linejoin="round"/>
</svg>
