<svg width="80" height="93" viewBox="0 0 80 93" fill="none" xmlns="http://www.w3.org/2000/svg">
<circle cx="37.83" cy="31.2216" r="29.8369" stroke="white" stroke-width="2"/>
<path d="M40.54 0.990234V12.9771" stroke="white" stroke-width="2"/>
<path d="M40.5381 12.0596C37.1198 12.0596 35.4014 15.0946 35.4014 17.9315H45.6748C45.6748 15.0946 43.8835 12.0596 40.5381 12.0596Z" fill="white"/>
<path d="M1.84863 87.0586V72.918H7.16113C10.4033 72.918 12.1416 74.8906 12.1416 77.6055C12.1416 80.3203 10.3838 82.2734 7.12207 82.2734H4.3877V87.0586H1.84863ZM4.3877 80.1836H6.77051C8.68457 80.1836 9.54395 79.1094 9.54395 77.6055C9.54395 76.082 8.68457 75.0469 6.77051 75.0469H4.3877V80.1836ZM18.7314 72.918V87.0586H16.1924V72.918H18.7314ZM23.3682 87.0586V72.918H25.9072V84.9102H32.1572V87.0586H23.3682ZM36.1885 87.0586V72.918H38.7275V84.9102H44.9775V87.0586H36.1885ZM61.0596 79.9883C61.0596 84.5586 58.2861 87.2539 54.5752 87.2539C50.8643 87.2539 48.0908 84.5391 48.0908 79.9883C48.0908 75.418 50.8643 72.7227 54.5752 72.7227C58.2861 72.7227 61.0596 75.418 61.0596 79.9883ZM58.501 79.9883C58.501 76.7656 56.8799 75.0078 54.5752 75.0078C52.2705 75.0078 50.6494 76.7656 50.6494 79.9883C50.6494 83.2109 52.2705 84.9688 54.5752 84.9688C56.8799 84.9688 58.501 83.2109 58.501 79.9883ZM77.9424 79.9883C77.9424 84.5586 75.1689 87.2539 71.458 87.2539C67.7471 87.2539 64.9736 84.5391 64.9736 79.9883C64.9736 75.418 67.7471 72.7227 71.458 72.7227C75.1689 72.7227 77.9424 75.418 77.9424 79.9883ZM75.3838 79.9883C75.3838 76.7656 73.7627 75.0078 71.458 75.0078C69.1533 75.0078 67.5322 76.7656 67.5322 79.9883C67.5322 83.2109 69.1533 84.9688 71.458 84.9688C73.7627 84.9688 75.3838 83.2109 75.3838 79.9883Z" fill="white"/>
<path d="M9.24121 25.8541C11.0329 25.7693 12.663 25.9936 14.661 27.3482C19.8815 26.05 31.6177 24.2326 36.7986 27.3482C37.9955 26.6482 40.5326 25.4363 41.1058 26.1885C41.6789 26.9408 41.0162 28.5319 40.6132 29.2334C42.366 32.7416 44.8199 41.8761 40.6132 50.349C40.9878 51.1633 41.6047 53.0433 41.0753 54.049C40.546 55.0548 38.6785 54.5564 37.8109 54.1814C37.0316 54.5049 34.9876 55.196 33.0467 55.3725" stroke="white" stroke-width="2" stroke-linecap="round" stroke-linejoin="round"/>
</svg>
