<svg width="33" height="33" viewBox="0 0 33 33" fill="none" xmlns="http://www.w3.org/2000/svg">
<path d="M16.5399 29.5749C23.9039 29.5749 29.8732 23.6055 29.8732 16.2415C29.8732 15.6242 28.9479 15.5215 28.6292 16.0509C27.9495 17.1767 27.0226 18.133 25.9186 18.8475C24.8145 19.562 23.5624 20.0159 22.257 20.1747C20.9516 20.3336 19.6271 20.1934 18.3839 19.7646C17.1408 19.3358 16.0115 18.6297 15.0816 17.6998C14.1517 16.7699 13.4456 15.6406 13.0168 14.3975C12.588 13.1543 12.4478 11.8298 12.6067 10.5244C12.7656 9.21901 13.2194 7.96687 13.9339 6.86285C14.6484 5.75883 15.6048 4.83188 16.7305 4.1522C17.2599 3.8322 17.1572 2.9082 16.5399 2.9082C9.17588 2.9082 3.20654 8.87754 3.20654 16.2415C3.20654 23.6055 9.17588 29.5749 16.5399 29.5749Z" fill="white"/>
</svg>
