<svg width="42" height="43" viewBox="0 0 42 43" fill="none" xmlns="http://www.w3.org/2000/svg">
<mask id="path-1-inside-1_296_153" fill="white">
<path d="M24.2075 6.0443C20.894 5.38272 17.457 5.76181 14.3674 7.12965C11.2777 8.49749 8.68658 10.7872 6.94891 13.685C5.21123 16.5828 4.41203 19.947 4.66081 23.3167C4.90958 26.6864 6.19415 29.8968 8.33854 32.508C10.4829 35.1192 13.3822 37.0035 16.6393 37.9028C19.8963 38.8021 23.3517 38.6723 26.5321 37.5313C29.7125 36.3903 32.4623 34.2938 34.4048 31.5291C36.3473 28.7644 37.3875 25.4668 37.3829 22.0879L34.4867 22.0919C34.4905 24.8735 33.6342 27.5882 32.0351 29.8641C30.436 32.1401 28.1722 33.8659 25.5541 34.8053C22.9359 35.7446 20.0913 35.8514 17.4101 35.1111C14.7288 34.3708 12.342 32.8196 10.5767 30.67C8.81141 28.5204 7.75391 25.8775 7.54912 23.1035C7.34432 20.3295 8.00224 17.56 9.43273 15.1744C10.8632 12.7888 12.9963 10.9039 15.5398 9.77789C18.0833 8.65186 20.9127 8.33978 23.6404 8.88441L24.2075 6.0443Z"/>
</mask>
<path d="M24.2075 6.0443C20.894 5.38272 17.457 5.76181 14.3674 7.12965C11.2777 8.49749 8.68658 10.7872 6.94891 13.685C5.21123 16.5828 4.41203 19.947 4.66081 23.3167C4.90958 26.6864 6.19415 29.8968 8.33854 32.508C10.4829 35.1192 13.3822 37.0035 16.6393 37.9028C19.8963 38.8021 23.3517 38.6723 26.5321 37.5313C29.7125 36.3903 32.4623 34.2938 34.4048 31.5291C36.3473 28.7644 37.3875 25.4668 37.3829 22.0879L34.4867 22.0919C34.4905 24.8735 33.6342 27.5882 32.0351 29.8641C30.436 32.1401 28.1722 33.8659 25.5541 34.8053C22.9359 35.7446 20.0913 35.8514 17.4101 35.1111C14.7288 34.3708 12.342 32.8196 10.5767 30.67C8.81141 28.5204 7.75391 25.8775 7.54912 23.1035C7.34432 20.3295 8.00224 17.56 9.43273 15.1744C10.8632 12.7888 12.9963 10.9039 15.5398 9.77789C18.0833 8.65186 20.9127 8.33978 23.6404 8.88441L24.2075 6.0443Z" stroke="white" stroke-width="6" mask="url(#path-1-inside-1_296_153)"/>
<path d="M28.8577 8.19929L21.539 12.194L22.8341 2.43415L28.8577 8.19929Z" fill="white"/>
</svg>
