<svg width="36" height="37" viewBox="0 0 36 37" fill="none" xmlns="http://www.w3.org/2000/svg">
<path fill-rule="evenodd" clip-rule="evenodd" d="M19.5 4.88477C19.5 4.48694 19.342 4.10541 19.0607 3.82411C18.7794 3.5428 18.3978 3.38477 18 3.38477C17.6022 3.38477 17.2206 3.5428 16.9393 3.82411C16.658 4.10541 16.5 4.48694 16.5 4.88477V7.88477C16.5 8.28259 16.658 8.66412 16.9393 8.94543C17.2206 9.22673 17.6022 9.38477 18 9.38477C18.3978 9.38477 18.7794 9.22673 19.0607 8.94543C19.342 8.66412 19.5 8.28259 19.5 7.88477V4.88477ZM9.5145 7.77827C9.23032 7.51178 8.85362 7.36631 8.4641 7.37264C8.07457 7.37896 7.70279 7.53659 7.42741 7.81216C7.15204 8.08773 6.99468 8.45962 6.98863 8.84915C6.98258 9.23868 7.12832 9.61528 7.395 9.89927L9.516 12.0203C9.7989 12.2935 10.1778 12.4447 10.5711 12.4413C10.9644 12.4379 11.3406 12.2801 11.6187 12.002C11.8968 11.7239 12.0546 11.3477 12.058 10.9544C12.0614 10.5611 11.9102 10.1822 11.637 9.89927L9.5145 7.77827ZM28.6065 9.89927C28.8797 9.61636 29.0309 9.23746 29.0275 8.84416C29.0241 8.45087 28.8663 8.07465 28.5882 7.79654C28.3101 7.51843 27.9339 7.36067 27.5406 7.35725C27.1473 7.35384 26.7684 7.50503 26.4855 7.77827L24.3645 9.89927C24.0913 10.1822 23.9401 10.5611 23.9435 10.9544C23.9469 11.3477 24.1047 11.7239 24.3828 12.002C24.6609 12.2801 25.0371 12.4379 25.4304 12.4413C25.8237 12.4447 26.2026 12.2935 26.4855 12.0203L28.6065 9.89927ZM18 10.8848C16.0109 10.8848 14.1032 11.6749 12.6967 13.0815C11.2902 14.488 10.5 16.3956 10.5 18.3848C10.5 20.3739 11.2902 22.2815 12.6967 23.6881C14.1032 25.0946 16.0109 25.8848 18 25.8848C19.9891 25.8848 21.8968 25.0946 23.3033 23.6881C24.7098 22.2815 25.5 20.3739 25.5 18.3848C25.5 16.3956 24.7098 14.488 23.3033 13.0815C21.8968 11.6749 19.9891 10.8848 18 10.8848ZM4.5 16.8848C4.10218 16.8848 3.72064 17.0428 3.43934 17.3241C3.15804 17.6054 3 17.9869 3 18.3848C3 18.7826 3.15804 19.1641 3.43934 19.4454C3.72064 19.7267 4.10218 19.8848 4.5 19.8848H7.5C7.89783 19.8848 8.27936 19.7267 8.56066 19.4454C8.84196 19.1641 9 18.7826 9 18.3848C9 17.9869 8.84196 17.6054 8.56066 17.3241C8.27936 17.0428 7.89783 16.8848 7.5 16.8848H4.5ZM28.5 16.8848C28.1022 16.8848 27.7206 17.0428 27.4393 17.3241C27.158 17.6054 27 17.9869 27 18.3848C27 18.7826 27.158 19.1641 27.4393 19.4454C27.7206 19.7267 28.1022 19.8848 28.5 19.8848H31.5C31.8978 19.8848 32.2794 19.7267 32.5607 19.4454C32.842 19.1641 33 18.7826 33 18.3848C33 17.9869 32.842 17.6054 32.5607 17.3241C32.2794 17.0428 31.8978 16.8848 31.5 16.8848H28.5ZM11.6355 26.8703C11.7788 26.7319 11.893 26.5664 11.9717 26.3834C12.0503 26.2004 12.0916 26.0035 12.0934 25.8044C12.0951 25.6052 12.0572 25.4077 11.9817 25.2233C11.9063 25.039 11.7949 24.8715 11.6541 24.7307C11.5133 24.5898 11.3458 24.4785 11.1614 24.403C10.9771 24.3276 10.7796 24.2897 10.5804 24.2914C10.3812 24.2931 10.1844 24.3345 10.0014 24.4131C9.81839 24.4917 9.65287 24.606 9.5145 24.7493L7.3935 26.8703C7.25024 27.0086 7.13596 27.1742 7.05735 27.3572C6.97873 27.5402 6.93736 27.737 6.93562 27.9362C6.93389 28.1353 6.97185 28.3329 7.04727 28.5172C7.12269 28.7015 7.23407 28.869 7.37491 29.0099C7.51575 29.1507 7.68323 29.2621 7.86757 29.3375C8.05191 29.4129 8.24943 29.4509 8.4486 29.4491C8.64777 29.4474 8.8446 29.406 9.02761 29.3274C9.21061 29.2488 9.37613 29.1345 9.5145 28.9913L11.6355 26.8703ZM26.4855 24.7493C26.2026 24.476 25.8237 24.3248 25.4304 24.3283C25.0371 24.3317 24.6609 24.4894 24.3828 24.7675C24.1047 25.0457 23.9469 25.4219 23.9435 25.8152C23.9401 26.2085 24.0913 26.5874 24.3645 26.8703L26.4855 28.9913C26.7684 29.2645 27.1473 29.4157 27.5406 29.4123C27.9339 29.4089 28.3101 29.2511 28.5882 28.973C28.8663 28.6949 29.0241 28.3187 29.0275 27.9254C29.0309 27.5321 28.8797 27.1532 28.6065 26.8703L26.4855 24.7493ZM19.5 28.8848C19.5 28.4869 19.342 28.1054 19.0607 27.8241C18.7794 27.5428 18.3978 27.3848 18 27.3848C17.6022 27.3848 17.2206 27.5428 16.9393 27.8241C16.658 28.1054 16.5 28.4869 16.5 28.8848V31.8848C16.5 32.2826 16.658 32.6641 16.9393 32.9454C17.2206 33.2267 17.6022 33.3848 18 33.3848C18.3978 33.3848 18.7794 33.2267 19.0607 32.9454C19.342 32.6641 19.5 32.2826 19.5 31.8848V28.8848Z" fill="white"/>
</svg>
